<svg style="position: absolute; width: 0; height: 0;" width="0" height="0" version="1.1" xmlns="http://www.w3.org/2000/svg" xmlns:xlink="http://www.w3.org/1999/xlink">
  <defs>
    <!-- Buttons Add -->
    <symbol id="svgicon__button--add" viewBox="-1 -1 19 19">
      <title>Add</title>
      <g id="Shape-+-Oval-6" stroke="none" stroke-width="1" fill="none" fill-rule="evenodd">
        <polygon id="Shape" stroke="#FFFFFF" stroke-width="0.5" fill="#FFFFFF" points="8.83229814 7.60248447 8.83229814 3.91304348 7.60248447 3.91304348 7.60248447 7.60248447 3.91304348 7.60248447 3.91304348 8.83229814 7.60248447 8.83229814 7.60248447 12.5217391 8.83229814 12.5217391 8.83229814 8.83229814 12.5217391 8.83229814 12.5217391 7.60248447"></polygon>
        <ellipse id="Oval-6" stroke="#FFFFFF" stroke-width="2" cx="8.2173913" cy="8.2173913" rx="8.2173913" ry="8.2173913"></ellipse>
      </g>
    </symbol>

    <symbol id="svgicon__filters--shape" viewBox="74 15 9 5">
      <title>Shape</title>
      <polygon id="Shape-Copy-3" stroke="none" fill-rule="evenodd" points="74 15 78.5 20 83 15"></polygon>
    </symbol>

    <symbol id="svgicon__shape--up" viewBox="0 0 9 5">
      <title>Shape Up</title>
      <g id="Page-1" stroke="none" stroke-width="1" fill-rule="evenodd">
        <g id="Statistics" transform="translate(-541.000000, -305.000000)">
          <g id="Table" transform="translate(210.000000, 219.000000)">
            <g id="Rows" transform="translate(32.000000, 33.000000)">
              <g id="Group-33" transform="translate(0.000000, 41.000000)">
                <g id="Group-13-Copy" transform="translate(303.500000, 15.500000) scale(1, -1) translate(-303.500000, -15.500000) translate(298.000000, 10.000000)">
                  <g id="Expand">
                    <polygon id="Shape-Copy-2" points="1 4 5.5 9 10 4"></polygon>
                  </g>
                </g>
              </g>
            </g>
          </g>
        </g>
      </g>
    </symbol>

    <symbol id="svgicon__table--notification" viewBox="119 1 16 16">
      <title>Table Notification</title>
      <g id="notification-copy-6" stroke="none" stroke-width="1" fill="none" fill-rule="evenodd" transform="translate(119.000000, 1.000000)">
        <circle id="Oval-9" fill="#FF7C7C" cx="8" cy="8" r="8"></circle>
        <polygon id="Shape" fill="#FFFFFF" points="11 5.8 10.2 5 8 7.2 5.8 5 5 5.8 7.2 8 5 10.2 5.8 11 8 8.8 10.2 11 11 10.2 8.8 8"></polygon>
      </g>
    </symbol>

    <symbol id="svgicon__table--check" viewBox="155 2 16 16">
      <title>Table Check</title>
      <g id="Group-3" stroke="none" stroke-width="1" fill="none" fill-rule="evenodd" transform="translate(155.000000, 2.000000)">
        <circle id="Oval-9" fill="#9575CD" cx="8" cy="8" r="8"></circle>
        <g id="check" transform="translate(4.000000, 3.000000)" fill="#FFFFFF">
          <path d="M4.88955008,5.86620334 L1.28130666,2.25795992 L0.54996338,2.98930321 L4.88955008,7.32888991 L7.14844662,5.06999336 C7.77792656,4.44051342 9.03688645,3.18155353 9.03688645,3.18155353 L8.30554317,2.45021025 L4.88955008,5.86620334 Z" id="Shape" transform="translate(4.793425, 4.793425) rotate(-315.000000) translate(-4.793425, -4.793425) "></path>
        </g>
      </g>
    </symbol>

    <symbol id="svgicon__table--filter" viewBox="1152 3 10 11">
      <title>Filter</title>
      <path d="M1155.79796,7.72939631 C1155.90386,7.84370293 1155.962,7.99300893 1155.962,8.14746342 L1155.962,12.6987222 C1155.962,12.9726215 1156.29527,13.1116305 1156.49254,12.919067 L1157.77269,11.4641057 C1157.944,11.2602258 1158.03848,11.1593156 1158.03848,10.957495 L1158.03848,8.14848282 C1158.03848,7.99402833 1158.09766,7.84472233 1158.20253,7.73042601 L1161.87581,3.77742091 C1162.15095,3.48086829 1161.93916,3 1161.53215,3 L1152.4683,3 C1152.06131,3 1151.84847,3.4798386 1152.12465,3.77742091 L1155.79796,7.72939631 Z" id="Fill-1-Copy-12" stroke="none" fill="#B9E9EE" fill-rule="evenodd"></path>
    </symbol>

    <symbol id="svgicon__button--success" viewBox="0 0 18 14">
      <title>Success</title>
      <g id="Page-1" stroke="none" stroke-width="1" fill="none" fill-rule="evenodd">
        <g id="UI-kit" transform="translate(-403.000000, -619.000000)">
          <rect id="Back" fill="#FFFFFF" x="194" y="108" width="1251" height="1376"></rect>
          <g id="Buttons" transform="translate(238.000000, 164.000000)">
            <g id="Apply-Button" transform="translate(148.000000, 444.000000)">
              <path d="M47.548352,0 C46.4401936,0 44.6449527,3.6211178e-17 43.5481252,7.48898447e-17 L1.99859295,3.72693832e-17 C0.894800541,1.66860712e-17 0,0.90185079 0,2.00285922 L0,35.9971408 C0,37.1032894 0.886100957,38 1.99993442,38 L97.0000656,38 C98.1045989,38 99,37.0981492 99,35.9971408 L99,2.00285922 C99,0.896710617 98.0957275,0 97.0006307,0 L47.548352,0 Z" id="button-bg" fill="#8BC34A"></path>
              <g id="Material/Icons-black/check" transform="translate(14.000000, 6.000000)" fill="#FFFFFF">
                <polygon id="Shape" points="8.9999939 16.2 4.7999939 12 3.3999939 13.4 8.9999939 19 20.9999939 7 19.5999939 5.6"></polygon>
              </g>
            </g>
          </g>
        </g>
      </g>
    </symbol>

    <symbol id="svgicon__dashboard--statistics" viewBox="18 10 21 18">
      <title>Statistics</title>
      <g id="Group" stroke-width="1" fill-rule="evenodd" transform="translate(19.000000, 11.000000)">
        <polygon id="Path-150" points="1.18579102 13.300293 8.29858398 7.03027344 11.9487305 9.8515625 17.0285645 4.984375 17.0285645 13.6523438 1.29418945 13.6523438"></polygon>
        <path d="M5.5,8.41666667 L5.5,12.5833333" id="Line-Copy-7" stroke="#FFFFFF" stroke-linecap="round" stroke-linejoin="round"></path>
        <path d="M9.5,4.91666667 L9.5,14.0833333" id="Line-Copy-10" stroke="#FFFFFF" stroke-linecap="round" stroke-linejoin="round"></path>
        <path d="M13.5,6.58333333 L13.5,12.4166667" id="Line-Copy-22" stroke="#FFFFFF" stroke-linecap="round" stroke-linejoin="round"></path>
        <path d="M1,0 L1,14" id="Line-Copy-6" stroke="#9B9B9B" stroke-width="2" stroke-linecap="round" stroke-linejoin="round"></path>
        <path d="M18,14 L2,14" id="Line-Copy-5" stroke="#9B9B9B" stroke-width="1.6" stroke-linecap="round" stroke-linejoin="round"></path>
        <path d="M1,11.9497475 L8.94974747,4" id="Path-157-Copy-5" stroke="#9B9B9B" stroke-width="1.4"></path>
        <path d="M16.5,1.5 L16.5,4.5" id="Line-Copy-8" stroke="#FFFFFF" stroke-linecap="square"></path>
        <path d="M11,7.94974747 L16.9497475,2" id="Path-157-Copy-4" stroke="#9B9B9B" stroke-width="1.4"></path>
        <path d="M8,7.94974747 L11.9497475,4" id="Path-157-Copy-3" stroke="#9B9B9B" stroke-width="1.4" transform="translate(9.974874, 5.974874) scale(-1, 1) translate(-9.974874, -5.974874) "></path>
        <path d="M17.5,1.5 L17.5,4.5" id="Line-Copy-4" stroke="#9B9B9B" stroke-linecap="square"></path>
        <path d="M17.5,1.5 L14.5,1.5" id="Line-Copy-3" stroke="#9B9B9B" stroke-linecap="square"></path>
      </g>
    </symbol>

    <!-- Logout -->
    <symbol id="svgicon__logout" viewBox="0 0 20 17">
      <title>Logout</title>
      <g id="Page-1" stroke-width="1" fill-rule="evenodd" opacity="1">
        <g id="UI-kit" transform="translate(-1394.000000, -71.000000)" stroke-width="0.3">
          <g id="Header" transform="translate(-11.000000, 62.000000)">
            <g id="Quit-Icon" transform="translate(1406.000000, 10.000000)">
              <path d="M13.5329184,11.3205495 C13.6363586,11.4229121 13.7654505,11.4738462 13.9073684,11.4738462 C14.0494529,11.4738462 14.1787114,11.4229121 14.2818184,11.3205495 L17.7681342,7.87054945 C17.7941191,7.845 17.819771,7.81928571 17.8327634,7.7939011 C17.8327634,7.7939011 17.8457559,7.78104396 17.8457559,7.76835165 C17.8585818,7.7428022 17.8715743,7.71725275 17.8845668,7.7043956 C17.8845668,7.69153846 17.8845668,7.67901099 17.8973927,7.67901099 C17.9102186,7.6532967 17.9102186,7.6406044 17.9232111,7.61489011 C17.936037,7.57664835 17.936037,7.5510989 17.936037,7.51285714 C17.936037,7.47445055 17.936037,7.4489011 17.9232111,7.41065934 C17.9232111,7.38494505 17.9102186,7.3593956 17.8973927,7.3467033 C17.8973927,7.33384615 17.8973927,7.32115385 17.8845668,7.32115385 C17.8715743,7.2956044 17.8585818,7.26989011 17.8457559,7.24450549 C17.8457559,7.24450549 17.8457559,7.23164835 17.8327634,7.23164835 C17.819771,7.2060989 17.7941191,7.18054945 17.7681342,7.155 L14.2818184,3.705 C14.0752713,3.50043956 13.7394656,3.50043956 13.5329184,3.705 C13.3262047,3.9093956 13.3262047,4.24153846 13.5329184,4.4460989 L16.1154239,7.0017033 L7.7675882,7.0017033 C7.47059341,7.0017033 7.23822788,7.23164835 7.23822788,7.52554945 C7.23822788,7.81928571 7.47059341,8.04956044 7.7675882,8.04956044 L16.1154239,8.04956044 L13.5329184,10.6051648 C13.3262047,10.7838462 13.3262047,11.1161538 13.5329184,11.3205495" id="Fill-1"></path>
              <path d="M9.35916715,14.9111538 C9.65616194,14.9111538 9.88852747,14.6812088 9.88852747,14.3873077 L9.88852747,11.8237088 C9.88852747,11.5298077 9.65616194,11.2996978 9.35916715,11.2996978 C9.06217235,11.2996978 8.82980682,11.5298077 8.82980682,11.8237088 L8.82980682,13.8632967 L1.13567611,13.8632967 L1.13567611,1.12384615 L8.82980682,1.12384615 L8.82980682,3.1635989 C8.82980682,3.4575 9.06217235,3.68744505 9.35916715,3.68744505 C9.65616194,3.68744505 9.88852747,3.4575 9.88852747,3.1635989 L9.88852747,0.6 C9.88852747,0.305934066 9.65616194,0.075989011 9.35916715,0.075989011 L0.606315789,0.075989011 C0.309154425,0.075989011 0.0767888953,0.305934066 0.0767888953,0.6 L0.0767888953,14.3873077 C0.0897813765,14.6812088 0.322146906,14.9111538 0.606315789,14.9111538 L9.35916715,14.9111538 Z" id="Fill-2"></path>
            </g>
          </g>
        </g>
      </g>
    </symbol>

    <!-- Logo -->
    <symbol id="svgicon__logo" viewBox="0 0 23 23">
      <title>Logo</title>
      <path d="M10.271022,6.30585741 L10.271022,7.95522889 C10.271022,8.40507759 10.6367975,8.77311299 11.0838229,8.77311299 C11.5308758,8.77311299 11.8966238,8.40507759 11.8966238,7.95522889 L11.8966238,6.30585741 C11.8966238,3.93399076 13.8157364,2.00287629 16.1728618,2.00287629 C18.5299597,2.00287629 20.4490722,3.93399076 20.4490722,6.30585741 C20.4490722,8.67769641 18.5299597,10.6088109 16.1728618,10.6088109 L5.99481158,10.6088109 C2.73907419,10.6088109 0.0929718305,13.2714894 0.0929718305,16.5475602 C0.0929718305,19.8236034 2.73907419,22.4862818 5.99481158,22.4862818 C9.25049401,22.4862818 11.8966238,19.8236034 11.8966238,16.5475602 L11.8966238,14.9163264 C11.8966238,14.4664777 11.5308758,14.0984423 11.0838229,14.0984423 C10.6367975,14.0984423 10.271022,14.4664777 10.271022,14.9163264 L10.271022,16.5475602 C10.271022,18.9193992 8.3519095,20.8505136 5.99481158,20.8505136 C3.63768617,20.8505136 1.71857366,18.9193992 1.71857366,16.5475602 C1.71857366,14.1756935 3.63768617,12.2445791 5.99481158,12.2445791 L16.1728618,12.2445791 C19.4285442,12.2445791 22.074674,9.58190058 22.074674,6.30585741 C22.074674,3.02975893 19.4285442,0.367108098 16.1728618,0.367108098 C12.9171518,0.367108098 10.271022,3.02975893 10.271022,6.30585741 Z" id="Page-1" stroke="none" fill="#7CD3DD" fill-rule="evenodd"></path>
    </symbol>

    <!-- LogoText -->
    <symbol id="svgicon__logo--text" viewBox="30 0 103 20">
      <title>LogoText</title>
      <path d="M40.5319766,9.5152297 C40.4122979,9.66146275 40.2968951,9.77758725 40.1857648,9.86360669 C40.0746346,9.94962613 39.91649,9.9926352 39.7113264,9.9926352 C39.5147113,9.9926352 39.337333,9.94532522 39.179186,9.85070384 C39.0210391,9.75608246 38.8436608,9.65071022 38.6470457,9.53458398 C38.4504306,9.41845774 38.219625,9.31308551 37.9546221,9.21846412 C37.6896191,9.12384274 37.3605075,9.07653276 36.9672773,9.07653276 C36.4800138,9.07653276 36.0590073,9.16685182 35.7042453,9.34749264 C35.3494833,9.52813346 35.0567021,9.78618791 34.8258931,10.1216637 C34.5950841,10.4571395 34.424117,10.8678762 34.3129867,11.353886 C34.2018565,11.8398959 34.1462922,12.3882616 34.1462922,12.9989996 C34.1462922,14.2806892 34.3920573,15.265597 34.8835951,15.9537525 C35.3751328,16.641908 36.0525899,16.9859806 36.9159866,16.9859806 C37.3776047,16.9859806 37.7430468,16.9279184 38.012324,16.8117921 C38.2816012,16.6956659 38.5102697,16.5666387 38.6983363,16.4247066 C38.8864029,16.2827745 39.0595071,16.1515969 39.217654,16.0311696 C39.375801,15.9107424 39.5745502,15.8505297 39.8139077,15.8505297 C40.1302016,15.8505297 40.3695555,15.9666542 40.5319766,16.1989067 L41.686016,17.6311232 C41.2756888,18.1042301 40.843997,18.4891613 40.3909274,18.7859284 C39.9378578,19.0826955 39.4741096,19.3149445 38.9996688,19.4826824 C38.525228,19.6504203 38.0486573,19.7665448 37.5699423,19.8310594 C37.0912272,19.8955739 36.6253419,19.9278307 36.1722724,19.9278307 C35.3601665,19.9278307 34.5844034,19.7729981 33.8449596,19.4633281 C33.1055159,19.1536581 32.455841,18.7042133 31.8959154,18.1149801 C31.3359898,17.525747 30.8914754,16.8010441 30.5623588,15.9408497 C30.2332422,15.0806553 30.0686864,14.1000484 30.0686864,12.9989996 C30.0686864,12.0355819 30.2118713,11.1345417 30.4982455,10.2958522 C30.7846197,9.45716268 31.2077632,8.73030932 31.7676888,8.11527033 C32.3276144,7.50023134 33.0200311,7.01637926 33.8449596,6.66369956 C34.6698882,6.31101986 35.6251668,6.13468265 36.7108241,6.13468265 C37.7537389,6.13468265 38.6684128,6.30241804 39.4548732,6.63789385 C40.2413336,6.97336967 40.950847,7.46367311 41.5834347,8.10881891 L40.5319766,9.5152297 Z M47.5075035,0.405816652 L47.5075035,19.7213851 L43.532479,19.7213851 L43.532479,0.405816652 L47.5075035,0.405816652 Z M54.8164194,6.34112827 L54.8164194,19.7213851 L50.841395,19.7213851 L50.841395,6.34112827 L54.8164194,6.34112827 Z M55.2780352,2.67671849 C55.2780352,2.99499041 55.2139225,3.29390348 55.0856953,3.57346666 C54.9574681,3.85302984 54.7822268,4.09818156 54.5599663,4.30892919 C54.3377057,4.51967681 54.079118,4.6874122 53.7841954,4.81214039 C53.4892727,4.93686857 53.1751207,4.99923173 52.8417299,4.99923173 C52.5168875,4.99923173 52.213421,4.93686857 51.931321,4.81214039 C51.6492211,4.6874122 51.3991818,4.51967681 51.1811954,4.30892919 C50.9632091,4.09818156 50.7922421,3.85302984 50.6682891,3.57346666 C50.5443361,3.29390348 50.4823605,2.99499041 50.4823605,2.67671849 C50.4823605,2.34984462 50.5443361,2.04448019 50.6682891,1.76061604 C50.7922421,1.47675189 50.9632091,1.22729926 51.1811954,1.01225067 C51.3991818,0.797202068 51.6492211,0.629466677 51.931321,0.509039463 C52.213421,0.388612248 52.5168875,0.328399544 52.8417299,0.328399544 C53.1751207,0.328399544 53.4892727,0.388612248 53.7841954,0.509039463 C54.079118,0.629466677 54.3377057,0.797202068 54.5599663,1.01225067 C54.7822268,1.22729926 54.9574681,1.47675189 55.0856953,1.76061604 C55.2139225,2.04448019 55.2780352,2.34984462 55.2780352,2.67671849 L55.2780352,2.67671849 Z M67.6134337,9.5152297 C67.493755,9.66146275 67.3783522,9.77758725 67.2672219,9.86360669 C67.1560917,9.94962613 66.9979471,9.9926352 66.7927835,9.9926352 C66.5961684,9.9926352 66.4187901,9.94532522 66.2606432,9.85070384 C66.1024962,9.75608246 65.9251179,9.65071022 65.7285028,9.53458398 C65.5318877,9.41845774 65.3010821,9.31308551 65.0360792,9.21846412 C64.7710762,9.12384274 64.4419646,9.07653276 64.0487344,9.07653276 C63.5614709,9.07653276 63.1404644,9.16685182 62.7857024,9.34749264 C62.4309404,9.52813346 62.1381592,9.78618791 61.9073502,10.1216637 C61.6765412,10.4571395 61.5055741,10.8678762 61.3944438,11.353886 C61.2833136,11.8398959 61.2277493,12.3882616 61.2277493,12.9989996 C61.2277493,14.2806892 61.4735144,15.265597 61.9650522,15.9537525 C62.4565899,16.641908 63.134047,16.9859806 63.9974437,16.9859806 C64.4590618,16.9859806 64.8245039,16.9279184 65.0937811,16.8117921 C65.3630583,16.6956659 65.5917268,16.5666387 65.7797934,16.4247066 C65.96786,16.2827745 66.1409642,16.1515969 66.2991111,16.0311696 C66.4572581,15.9107424 66.6560073,15.8505297 66.8953648,15.8505297 C67.2116587,15.8505297 67.4510126,15.9666542 67.6134337,16.1989067 L68.7674731,17.6311232 C68.357146,18.1042301 67.9254541,18.4891613 67.4723845,18.7859284 C67.0193149,19.0826955 66.5555667,19.3149445 66.0811259,19.4826824 C65.6066851,19.6504203 65.1301144,19.7665448 64.6513994,19.8310594 C64.1726844,19.8955739 63.706799,19.9278307 63.2537295,19.9278307 C62.4416236,19.9278307 61.6658605,19.7729981 60.9264168,19.4633281 C60.186973,19.1536581 59.5372981,18.7042133 58.9773725,18.1149801 C58.4174469,17.525747 57.9729325,16.8010441 57.6438159,15.9408497 C57.3146993,15.0806553 57.1501435,14.1000484 57.1501435,12.9989996 C57.1501435,12.0355819 57.2933284,11.1345417 57.5797026,10.2958522 C57.8660768,9.45716268 58.2892203,8.73030932 58.8491459,8.11527033 C59.4090715,7.50023134 60.1014882,7.01637926 60.9264168,6.66369956 C61.7513453,6.31101986 62.7066239,6.13468265 63.7922812,6.13468265 C64.835196,6.13468265 65.7498699,6.30241804 66.5363303,6.63789385 C67.3227907,6.97336967 68.0323041,7.46367311 68.6648918,8.10881891 L67.6134337,9.5152297 Z M74.460734,0.405816652 L74.460734,11.2313089 L75.0505763,11.2313089 C75.2984823,11.2313089 75.4886832,11.1969017 75.6211847,11.1280861 C75.7536862,11.0592706 75.8797744,10.9345443 75.9994531,10.7539034 L78.5126944,6.98627084 C78.6580186,6.7626203 78.8311228,6.59918582 79.0320121,6.49596249 C79.2329015,6.39273916 79.487215,6.34112827 79.7949604,6.34112827 L83.4365957,6.34112827 L80.0001229,11.1022804 C79.8377018,11.325931 79.6603234,11.5237727 79.4679826,11.6958116 C79.2756417,11.8678505 79.0683441,12.0226831 78.8460836,12.1603142 C79.2307653,12.4527803 79.5641511,12.839862 79.846251,13.3215709 L83.5904676,19.7213851 L80.0001229,19.7213851 C79.700926,19.7213851 79.4423383,19.6719247 79.224352,19.5730023 C79.0063657,19.47408 78.8289874,19.2998932 78.6922117,19.0504369 L76.1789704,14.3150904 C76.0592916,14.1000418 75.9353405,13.9602623 75.8071132,13.8957477 C75.678886,13.8312332 75.486548,13.7989764 75.2300936,13.7989764 L74.460734,13.7989764 L74.460734,19.7213851 L70.4857095,19.7213851 L70.4857095,0.405816652 L74.460734,0.405816652 Z M94.4384377,19.7213851 C94.0623044,19.7213851 93.7780717,19.6697742 93.5857308,19.5665509 C93.3933899,19.4633276 93.2331083,19.2482822 93.1048811,18.9214083 L92.8227825,18.1859458 C92.4893917,18.46981 92.1688284,18.7192626 91.8610831,18.9343112 C91.5533377,19.1493598 91.2349115,19.3321484 90.9057949,19.4826824 C90.5766784,19.6332164 90.2261958,19.74504 89.8543368,19.8181565 C89.4824779,19.891273 89.0700198,19.9278307 88.6169502,19.9278307 C88.0100079,19.9278307 87.4586391,19.848264 86.9628271,19.689128 C86.4670151,19.529992 86.0460087,19.2955926 85.6997951,18.9859226 C85.3535816,18.6762526 85.0864455,18.2913214 84.8983789,17.8311174 C84.7103123,17.3709134 84.6162804,16.8397513 84.6162804,16.2376153 C84.6162804,15.7645083 84.7359574,15.2785058 84.9753149,14.7795931 C85.2146724,14.2806803 85.6292676,13.8269346 86.2191128,13.4183422 C86.8089581,13.0097499 87.6039551,12.6678278 88.6041275,12.3925656 C89.6043,12.1173034 90.8651822,11.9624707 92.3868121,11.9280629 L92.3868121,11.3603374 C92.3868121,10.5775606 92.2265305,10.0119912 91.9059624,9.6636125 C91.5853943,9.31523377 91.1301944,9.14104702 90.5403491,9.14104702 C90.0701826,9.14104702 89.6855067,9.1926579 89.3863098,9.29588123 C89.0871129,9.39910456 88.8199768,9.51522906 88.5848935,9.64425822 C88.3498103,9.77328738 88.1211418,9.88941188 87.8988813,9.9926352 C87.6766207,10.0958585 87.4116217,10.1474694 87.1038764,10.1474694 C86.8303249,10.1474694 86.5973823,10.0808054 86.4050414,9.94747522 C86.2127006,9.81414509 86.0609673,9.64856016 85.949837,9.45071545 L85.2317681,8.19913887 C86.0353254,7.48517752 86.9264913,6.95401545 87.9052926,6.60563673 C88.8840938,6.257258 89.9334043,6.08307125 91.0532555,6.08307125 C91.8568129,6.08307125 92.5812859,6.21424892 93.2266963,6.47660821 C93.8721068,6.7389675 94.4192014,7.10454463 94.8679968,7.57335058 C95.3167921,8.04215652 95.6608633,8.59912403 95.9002209,9.24426983 C96.1395784,9.88941562 96.2592553,10.5947644 96.2592553,11.3603374 L96.2592553,19.7213851 L94.4384377,19.7213851 Z M89.8735708,17.2827462 C90.3864798,17.2827462 90.8352684,17.1924272 91.2199501,17.0117863 C91.6046318,16.8311455 91.9935819,16.5386838 92.3868121,16.1343924 L92.3868121,14.2763819 C91.5918033,14.3107896 90.9378541,14.3796041 90.4249452,14.4828275 C89.9120363,14.5860508 89.5059894,14.715078 89.2067925,14.869913 C88.9075957,15.024748 88.7002981,15.2010852 88.5848935,15.3989299 C88.469489,15.5967746 88.4117876,15.81182 88.4117876,16.0440725 C88.4117876,16.4999755 88.5357388,16.8203931 88.7836448,17.0053349 C89.0315508,17.1902767 89.3948558,17.2827462 89.8735708,17.2827462 L89.8735708,17.2827462 Z M103.183492,6.34112827 L103.183492,19.7213851 L99.208467,19.7213851 L99.208467,6.34112827 L103.183492,6.34112827 Z M103.645107,2.67671849 C103.645107,2.99499041 103.580995,3.29390348 103.452767,3.57346666 C103.32454,3.85302984 103.149299,4.09818156 102.927038,4.30892919 C102.704778,4.51967681 102.44619,4.6874122 102.151267,4.81214039 C101.856345,4.93686857 101.542193,4.99923173 101.208802,4.99923173 C100.88396,4.99923173 100.580493,4.93686857 100.298393,4.81214039 C100.016293,4.6874122 99.7662538,4.51967681 99.5482675,4.30892919 C99.3302812,4.09818156 99.1593141,3.85302984 99.0353611,3.57346666 C98.9114081,3.29390348 98.8494326,2.99499041 98.8494326,2.67671849 C98.8494326,2.34984462 98.9114081,2.04448019 99.0353611,1.76061604 C99.1593141,1.47675189 99.3302812,1.22729926 99.5482675,1.01225067 C99.7662538,0.797202068 100.016293,0.629466677 100.298393,0.509039463 C100.580493,0.388612248 100.88396,0.328399544 101.208802,0.328399544 C101.542193,0.328399544 101.856345,0.388612248 102.151267,0.509039463 C102.44619,0.629466677 102.704778,0.797202068 102.927038,1.01225067 C103.149299,1.22729926 103.32454,1.47675189 103.452767,1.76061604 C103.580995,2.04448019 103.645107,2.34984462 103.645107,2.67671849 L103.645107,2.67671849 Z M106.389156,19.7213851 L106.389156,6.34112827 L108.851107,6.34112827 C109.099013,6.34112827 109.306311,6.39704007 109.473006,6.50886534 C109.639701,6.62069061 109.757241,6.788426 109.825629,7.01207654 L110.056437,7.78624762 C110.312892,7.54539319 110.577891,7.32174601 110.851442,7.11529935 C111.124993,6.9088527 111.417775,6.73466595 111.729794,6.59273387 C112.041814,6.4508018 112.379474,6.33897821 112.742784,6.25725974 C113.106095,6.17554127 113.501456,6.13468265 113.92888,6.13468265 C114.655501,6.13468265 115.298765,6.26155942 115.858691,6.51531677 C116.418616,6.76907411 116.890913,7.12174852 117.275594,7.57335058 C117.660276,8.02495263 117.95092,8.56256606 118.147535,9.186207 C118.34415,9.80984793 118.442456,10.4872409 118.442456,11.2184061 L118.442456,19.7213851 L114.467432,19.7213851 L114.467432,11.2184061 C114.467432,10.5646583 114.317836,10.0550008 114.018639,9.6894182 C113.719442,9.32383558 113.279202,9.14104702 112.697905,9.14104702 C112.261932,9.14104702 111.851611,9.23566698 111.46693,9.42490975 C111.082248,9.61415251 110.714669,9.86790605 110.364181,10.186178 L110.364181,19.7213851 L106.389156,19.7213851 Z M126.956702,6.13468265 C127.837196,6.13468265 128.642879,6.27231169 129.373774,6.54757389 C130.104669,6.8228361 130.732973,7.22282049 131.258705,7.74753907 C131.784436,8.27225765 132.194757,8.91524331 132.48968,9.67651535 C132.784603,10.4377874 132.932062,11.3001193 132.932062,12.263537 C132.932062,12.5646051 132.919239,12.8097568 132.893594,12.9989996 C132.867948,13.1882423 132.820932,13.3387741 132.752545,13.4505994 C132.684157,13.5624246 132.592262,13.639841 132.476857,13.6828507 C132.361453,13.7258604 132.213994,13.7473649 132.034476,13.7473649 L124.366525,13.7473649 C124.494752,14.8656177 124.832412,15.6763387 125.379515,16.1795524 C125.926618,16.6827661 126.631857,16.9343692 127.495254,16.9343692 C127.956872,16.9343692 128.354371,16.8784574 128.687761,16.7666322 C129.021152,16.6548069 129.318208,16.5300806 129.578936,16.3924495 C129.839665,16.2548184 130.079019,16.1300921 130.297005,16.0182668 C130.514992,15.9064415 130.74366,15.8505297 130.983018,15.8505297 C131.299311,15.8505297 131.538665,15.9666542 131.701087,16.1989067 L132.855126,17.6311232 C132.444799,18.1042301 132.002421,18.4891613 131.527981,18.7859284 C131.05354,19.0826955 130.566284,19.3149445 130.066197,19.4826824 C129.566111,19.6504203 129.066032,19.7665448 128.565946,19.8310594 C128.06586,19.8955739 127.589289,19.9278307 127.13622,19.9278307 C126.204435,19.9278307 125.330366,19.7751485 124.513986,19.4697795 C123.697606,19.1644105 122.983818,18.7106648 122.372602,18.1085287 C121.761385,17.5063926 121.278403,16.7580347 120.923641,15.8634326 C120.568879,14.9688304 120.391501,13.9280108 120.391501,12.7409425 C120.391501,11.8463404 120.543234,10.9990616 120.846705,10.1990808 C121.150176,9.39910004 121.586142,8.69805213 122.154616,8.09591606 C122.723091,7.49377998 123.411233,7.01637926 124.219065,6.66369956 C125.026896,6.31101986 125.939433,6.13468265 126.956702,6.13468265 L126.956702,6.13468265 Z M127.033638,8.89589284 C126.272823,8.89589284 125.678713,9.11308867 125.251289,9.54748683 C124.823865,9.981885 124.541769,10.607667 124.404993,11.4248517 L129.367362,11.4248517 C129.367362,11.1065798 129.326758,10.7969144 129.245547,10.4958464 C129.164337,10.1947784 129.031837,9.92597166 128.848045,9.6894182 C128.664252,9.45286474 128.422761,9.26147436 128.123564,9.11524131 C127.824368,8.96900827 127.461063,8.89589284 127.033638,8.89589284 L127.033638,8.89589284 Z" id="clickaine" stroke="none" fill="#FFFFFF" fill-rule="evenodd"></path>
    </symbol>

    <!-- SIDEBAR ICONS -->

    <!-- Sidebar Dashboard -->
    <symbol id="svgicon__dashboard" viewBox="0 0 22 22">
      <title>Dashboard</title>
      <path d="M6.41941667,6.41941667 C6.41941667,6.41941667 8.822,12.1403333 9.73775,13.057 C10.6535,13.9736667 12.1394167,13.9736667 13.0560833,13.057 C13.97275,12.1403333 13.97275,10.6544167 13.0560833,9.73775 C12.1394167,8.822 6.41941667,6.41941667 6.41941667,6.41941667 L6.41941667,6.41941667 Z M11.65725,11.65725 C11.3135,12.001 10.75525,12.001 10.4115,11.65725 C10.0686667,11.3135 9.16758333,9.16758333 9.16758333,9.16758333 C9.16758333,9.16758333 11.3135,10.0686667 11.65725,10.4115 C12.0000833,10.75525 12.0000833,11.3135 11.65725,11.65725 L11.65725,11.65725 Z M11,0 C4.93441667,0 0,4.93533333 0,11 C0,17.0655833 4.93441667,22 11,22 C17.0655833,22 22,17.0655833 22,11 C22,4.93533333 17.0655833,0 11,0 L11,0 Z M11,20.1730833 C5.94183333,20.1730833 1.82691667,16.0581667 1.82691667,11 C1.82691667,5.94183333 5.94183333,1.82783333 11,1.82783333 C16.0581667,1.82783333 20.1721667,5.94183333 20.1721667,11 C20.1721667,16.0581667 16.0581667,20.1730833 11,20.1730833 L11,20.1730833 Z" id="Imported-Layers" fill-rule="evenodd"></path>
    </symbol>

    <!-- Sidebar Sites -->
    <symbol id="svg__dashboard--sites" viewBox="0 0 22 17">
      <title>Sites</title>
      <defs>
        <rect id="path-1" x="0" y="4" width="22" height="1" rx="0.5"></rect>
        <mask id="mask-2" maskContentUnits="userSpaceOnUse" maskUnits="objectBoundingBox" x="0" y="0" width="22" height="1" fill="white">
          <use xlink:href="#path-1"></use>
        </mask>
      </defs>
      <g id="Page-1" stroke-width="1" fill-rule="evenodd">
        <g id="UI-kit" transform="translate(-18.000000, -191.000000)">
          <g id="Sidebar" transform="translate(-1.000000, 65.000000)">
            <g id="Active-Item" transform="translate(19.000000, 126.000000)">
              <g id="Group-5">
                <polygon id="Path" points="19.3333333 4 2.66666667 4 2.66666667 0.666666667 9.33333333 0.666666667 9.33333333 2.33333333 19.3333333 2.33333333"></polygon>
                <polygon id="Path" points="19.3333333 14.8333333 19.3333333 15.6675 2.66666667 15.6675 2.66666667 5.66666667 19.3333333 5.66666667"></polygon>
                <use id="Rectangle-612" stroke="#FFFFFF" mask="url(#mask-2)" stroke-width="0.1" fill="#FFFFFF" xlink:href="#path-1"></use>
              </g>
            </g>
          </g>
        </g>
      </g>
    </symbol>

    <!-- Sidebar Profile -->
    <symbol id="svg__dashboard--profile" viewBox="0 0 21 24">
      <title>Profile</title>
      <defs>
        <rect id="path-1" x="0" y="0" width="211" height="781"></rect>
        <filter x="-50%" y="-50%" width="200%" height="200%" filterUnits="objectBoundingBox" id="filter-2">
          <feOffset dx="0" dy="5.5" in="SourceAlpha" result="shadowOffsetOuter1"></feOffset>
          <feGaussianBlur stdDeviation="2.5" in="shadowOffsetOuter1" result="shadowBlurOuter1"></feGaussianBlur>
          <feColorMatrix values="0 0 0 0 0   0 0 0 0 0   0 0 0 0 0  0 0 0 0.24 0" type="matrix" in="shadowBlurOuter1" result="shadowMatrixOuter1"></feColorMatrix>
          <feOffset dx="0" dy="9" in="SourceAlpha" result="shadowOffsetOuter2"></feOffset>
          <feGaussianBlur stdDeviation="9" in="shadowOffsetOuter2" result="shadowBlurOuter2"></feGaussianBlur>
          <feColorMatrix values="0 0 0 0 0   0 0 0 0 0   0 0 0 0 0  0 0 0 0.18 0" type="matrix" in="shadowBlurOuter2" result="shadowMatrixOuter2"></feColorMatrix>
          <feMerge>
            <feMergeNode in="shadowMatrixOuter1"></feMergeNode>
            <feMergeNode in="shadowMatrixOuter2"></feMergeNode>
          </feMerge>
        </filter>
      </defs>
      <g id="Page-1" stroke-width="1" fill-rule="evenodd">
        <g id="UI-kit" transform="translate(-18.000000, -227.000000)">
          <g id="Sidebar" transform="translate(-1.000000, 65.000000)">
            <g id="Sidebar-Sub">
              <use fill="black" fill-opacity="1" filter="url(#filter-2)" xlink:href="#path-1"></use>
              <use fill="#FFFFFF" fill-rule="evenodd" xlink:href="#path-1"></use>
            </g>
            <g id="Hover-Item" transform="translate(20.000000, 163.000000)" fill-rule="evenodd" stroke-width="1">
              <path d="M9.54999654,11.845802 L9.62327413,11.845802 L9.65072556,11.845802 L9.69655172,11.845802 C11.0396791,11.8231485 12.1262242,11.3585347 12.9285142,10.4700396 C14.6935966,8.51247525 14.4002648,5.15627723 14.3681644,4.83607921 C14.2537097,2.4319802 13.0983146,1.28166337 12.144599,0.744950495 C11.4339613,0.34350495 10.6042198,0.126990099 9.67817698,0.108910891 L9.64607652,0.108910891 L9.62792316,0.108910891 L9.60025035,0.108910891 C9.09151346,0.108910891 8.09197166,0.190158416 7.13404976,0.726871287 C6.17103606,1.26358416 4.99748764,2.41390099 4.88303291,4.83607921 C4.85093245,5.15627723 4.55737931,8.51247525 6.32246166,10.4700396 C7.12010266,11.3585347 8.20664777,11.8231485 9.54999654,11.845802 L9.54999654,11.845802 Z M6.10705653,4.94891089 C6.10705653,4.93540594 6.11148418,4.92190099 6.11148418,4.91275248 C6.26290978,1.67853465 8.5962809,1.33132673 9.59582271,1.33132673 L9.61419745,1.33132673 L9.65072556,1.33132673 C10.8886963,1.35833663 12.9927152,1.85453465 13.1350641,4.91275248 C13.1350641,4.92625743 13.1350641,4.9399802 13.1394917,4.94891089 C13.1441408,4.98049505 13.4649239,8.04764356 12.0071205,9.66257426 C11.4295336,10.3031881 10.6591227,10.6188119 9.64607652,10.6279604 L9.62327413,10.6279604 L9.60025035,10.6279604 C8.59185325,10.6188119 7.81701464,10.3031881 7.24385546,9.66257426 C5.79070099,8.05679208 6.10240749,4.97592079 6.10705653,4.94891089 L6.10705653,4.94891089 Z" id="Fill-1"></path>
              <path d="M19.0442047,17.4120198 L19.0442047,17.3985149 C19.0442047,17.3623564 19.039777,17.326198 19.039777,17.2856832 C19.0121042,16.3926139 18.9525524,14.3041386 16.9629882,13.6365149 C16.9492625,13.6319406 16.9311091,13.6275842 16.917162,13.6230099 C14.8494499,13.1041584 13.1301937,11.9314059 13.1120403,11.9181188 C12.8324343,11.7240396 12.4472288,11.7917822 12.2501984,12.0666733 C12.0529466,12.3417822 12.1217966,12.7207921 12.4014026,12.9148713 C12.4793292,12.9688911 14.3037421,14.2183168 16.5870808,14.7957624 C17.6552511,15.170198 17.7743549,16.2932871 17.8066767,17.3218416 C17.8066767,17.3623564 17.8066767,17.3985149 17.810883,17.4344554 C17.8157534,17.8404752 17.7880806,18.4673663 17.7150244,18.828297 C16.9720649,19.2432475 14.0611069,20.6778218 9.63235081,20.6778218 C5.22219084,20.6778218 2.29263675,19.2388911 1.54547095,18.8237228 C1.47219336,18.4630099 1.4400929,17.835901 1.44916958,17.430099 C1.44916958,17.3939406 1.45381861,17.3577822 1.45381861,17.3172673 C1.48591907,16.2887129 1.60502283,15.1656238 2.6731932,14.7911881 C4.9563105,14.2137426 6.78094473,12.9599604 6.85887136,12.910297 C7.13847741,12.7162178 7.20732735,12.3376436 7.01007558,12.0623168 C6.81304519,11.7869901 6.42783971,11.7194653 6.14823366,11.9133267 C6.12985892,11.9270495 4.4199008,13.099802 2.34311195,13.6184356 C2.32473721,13.6230099 2.31101149,13.6275842 2.29728578,13.6319406 C0.307721619,14.3041386 0.248169737,16.3926139 0.220718312,17.2811089 C0.220718312,17.3218416 0.220718312,17.3577822 0.21606928,17.3939406 L0.21606928,17.4074455 C0.211420249,17.6418218 0.206771217,18.8461584 0.449849158,19.4508317 C0.495675327,19.5682376 0.578250984,19.6673465 0.688056684,19.7350891 C0.825756574,19.8252673 4.12192001,21.8910891 9.63699984,21.8910891 C15.1520797,21.8910891 18.4482431,19.8206931 18.5857216,19.7350891 C18.6913211,19.6673465 18.7783244,19.5682376 18.8241505,19.4508317 C19.0535028,18.8509505 19.0488537,17.6466139 19.0442047,17.4120198" id="Fill-2"></path>
            </g>
          </g>
        </g>
      </g>
    </symbol>

    <!-- Sidebar Finance -->
    <symbol id="svg__dashboard--finance" viewBox="0 0 22 20">
      <title>Finance</title>
      <g id="Page-1" stroke-width="1" fill-rule="evenodd">
        <g id="UI-kit" transform="translate(-18.000000, -271.000000)">
          <g id="Sidebar" transform="translate(-1.000000, 65.000000)">
            <g id="Normal-Item" transform="translate(19.000000, 206.000000)">
              <path d="M20,3.63636364 L18.1818182,3.63636364 L18.1818182,1.81818182 C18.1818182,0.814545455 17.3672727,0 16.3636364,0 L1.81818182,0 C0.813636364,0 0,0.814545455 0,1.81818182 L0,18.1818182 C0,19.1854545 0.813636364,20 1.81818182,20 L20,20 C21.0036364,20 21.8181818,19.1854545 21.8181818,18.1818182 L21.8181818,5.45454545 C21.8181818,4.45090909 21.0036364,3.63636364 20,3.63636364 L20,3.63636364 Z M1.81818182,1.81818182 L16.3636364,1.81818182 L16.3636364,3.63636364 L1.81818182,3.63636364 L1.81818182,1.81818182 Z M1.81818182,5.45454545 L20,5.45454545 L20,18.1818182 L1.81818182,18.1818182 L1.81818182,5.45454545 Z M15.4545455,14.5454545 C16.96,14.5454545 18.1818182,13.3245455 18.1818182,11.8181818 C18.1818182,10.3127273 16.96,9.09090909 15.4545455,9.09090909 C13.9490909,9.09090909 12.7272727,10.3127273 12.7272727,11.8181818 C12.7272727,13.3245455 13.9490909,14.5454545 15.4545455,14.5454545 L15.4545455,14.5454545 Z M15.4545455,10.9090909 C15.9572727,10.9090909 16.3636364,11.3163636 16.3636364,11.8181818 C16.3636364,12.3209091 15.9572727,12.7272727 15.4545455,12.7272727 C14.9518182,12.7272727 14.5454545,12.3209091 14.5454545,11.8181818 C14.5454545,11.3163636 14.9518182,10.9090909 15.4545455,10.9090909 L15.4545455,10.9090909 Z" id="Imported-Layers"></path>
            </g>
          </g>
        </g>
      </g>
    </symbol>

    <!-- Sidebar Support -->
    <symbol id="svg__dashboard--support" viewBox="0 0 22 22">
      <title>Support</title>
      <g id="Imported-Layers" stroke-width="0.1" fill="none" fill-rule="evenodd">
        <path d="M10.56,0.51744 C4.73704,0.51744 0,5.25536 0,11.07744 C0,16.9004 4.73704,21.63744 10.56,21.63744 C16.38296,21.63744 21.12,16.9004 21.12,11.07744 C21.12,5.25536 16.38296,0.51744 10.56,0.51744 L10.56,0.51744 Z M10.56,19.8836 C5.70416,19.8836 1.75384,15.9324 1.75384,11.07744 C1.75384,6.22248 5.70416,2.27304 10.56,2.27304 C15.41584,2.27304 19.36528,6.22248 19.36528,11.07744 C19.36528,15.9324 15.41584,19.8836 10.56,19.8836 L10.56,19.8836 Z" id="Fill-1" fill="#9B9B9B"></path>
        <path d="M6.07728,11.07744 C6.07728,8.602 8.08456,6.59472 10.56,6.59472 C13.03544,6.59472 15.04272,8.602 15.04272,11.07744 C15.04272,13.55288 13.03544,15.56104 10.56,15.56104 C8.08456,15.56104 6.07728,13.55288 6.07728,11.07744 L6.07728,11.07744 Z M10.56,1.59544 L10.56,6.59472 L10.56,1.59544 Z M10.56,15.67544 L10.56,20.67472 L10.56,15.67544 Z M1.18536,11.07744 L6.18552,11.07744 L1.18536,11.07744 Z M15.26536,11.07744 L20.26552,11.07744 L15.26536,11.07744 Z" id="Stroke-2" stroke-width="2"></path>
      </g>
    </symbol>

    <!-- Sidebar API -->
    <symbol id="svg__dashboard--api" viewBox="0 0 22 19">
      <title>API</title>
      <g id="Page-1" stroke-width="1" fill-rule="evenodd">
        <g id="UI-kit" transform="translate(-17.000000, -355.000000)" stroke-width="0.3">
          <g id="Sidebar" transform="translate(-1.000000, 65.000000)">
            <g id="Normal-Item" transform="translate(18.000000, 290.000000)">
              <path d="M2.45787714,11.7336204 C2.45787714,11.1140196 2.33031416,10.6918469 2.07518439,10.4670897 C1.82005461,10.2423325 1.4616634,10.1299556 1,10.1299556 L1,8.85431309 C1.4616634,8.85431309 1.82005461,8.73282454 2.07518439,8.4898438 C2.33031416,8.24686306 2.45787714,7.85809971 2.45787714,7.32354209 L2.45787714,2.91346374 C2.45787714,2.34245901 2.60062618,1.88080253 2.88612855,1.52848046 C3.17163092,1.17615839 3.60595247,1 4.18910624,1 L5.7381007,1 L5.7381007,2.2756425 L4.82692749,2.2756425 C4.49890349,2.2756425 4.25896361,2.35764727 4.10710065,2.52165926 C3.95523769,2.68567126 3.87930735,2.96205771 3.87930735,3.35082689 L3.87930735,7.66978791 C3.87930735,8.20434553 3.75174438,8.61133217 3.4966146,8.89076001 C3.24148483,9.17018786 2.94383789,9.34027183 2.60366485,9.40101701 L2.60366485,9.5103578 C2.93168885,9.55895395 3.22629857,9.74422398 3.48750287,10.0661735 C3.74870716,10.3881229 3.87930735,10.8042212 3.87930735,11.3144808 L3.87930735,15.6152183 C3.87930735,15.9918385 3.95220048,16.2651877 4.09798892,16.4352742 C4.24377736,16.6053607 4.49282888,16.6904027 4.84515095,16.6904027 L5.7381007,16.6904027 L5.7381007,17.9660452 L4.18910624,17.9660452 C3.64239958,17.9660452 3.21718967,17.8050729 2.91346374,17.4831234 C2.60973782,17.1611739 2.45787714,16.6904058 2.45787714,16.0708049 L2.45787714,11.7336204 Z M20.2804252,7.23242477 C20.2804252,7.85202565 20.4079881,8.27419835 20.6631179,8.49895553 C20.9182477,8.72371272 21.2766389,8.83608962 21.7383023,8.83608962 L21.7383023,10.1117321 C21.2766389,10.1117321 20.9182477,10.2332207 20.6631179,10.4762014 C20.4079881,10.7191821 20.2804252,11.1079455 20.2804252,11.6425031 L20.2804252,16.0525815 C20.2804252,16.6235862 20.1376761,17.0852427 19.8521738,17.4375647 C19.5666714,17.7898868 19.1323498,17.9660452 18.5491961,17.9660452 L17.0002016,17.9660452 L17.0002016,16.6904027 L17.9113748,16.6904027 C18.2393988,16.6904027 18.4793387,16.6083979 18.6312016,16.4443859 C18.7830646,16.2803739 18.858995,16.0039875 18.858995,15.6152183 L18.858995,11.2962573 C18.858995,10.7616997 18.9835207,10.354713 19.232576,10.0752852 C19.4816312,9.79585734 19.7762409,9.62577338 20.116414,9.56502819 L20.116414,9.45568741 C19.78839,9.40709126 19.4968175,9.22182122 19.2416877,8.89987175 C18.9865579,8.57792227 18.858995,8.161824 18.858995,7.65156445 L18.858995,3.35082689 C18.858995,2.97420674 18.7861018,2.70085751 18.6403134,2.530771 C18.4945249,2.36068448 18.2515478,2.2756425 17.9113748,2.2756425 L17.0002016,2.2756425 L17.0002016,1 L18.5674195,1 C19.1019771,1 19.5211126,1.16097232 19.8248386,1.4829218 C20.1285645,1.80487128 20.2804252,2.2756394 20.2804252,2.89524028 L20.2804252,7.23242477 Z" id="{--}"></path>
            </g>
          </g>
        </g>
      </g>
    </symbol>
  </defs>
</svg>
